<svg viewBox="0 0 460 100" fill="none" xmlns="http://www.w3.org/2000/svg">
  <!-- Circuit B Mark (White) -->
  <g id="circuit-mark">
    <!-- Top Circuit Loop -->
    <path d="M 16 18 L 16 50" stroke="#FFFFFF" stroke-width="7.5" stroke-linecap="round" />
    <path d="M 16 32 L 64 32 C 76 32 80 39 80 46 C 80 53 76 53 64 53 L 38 53" stroke="#FFFFFF" stroke-width="7.5" stroke-linecap="round" stroke-linejoin="round" />
    <circle cx="16" cy="16" r="7.5" stroke="#FFFFFF" stroke-width="4.5" fill="#0A0A0C" />
    <circle cx="16" cy="16" r="2.5" fill="#FFFFFF" />
    <circle cx="38" cy="53" r="7.5" stroke="#FFFFFF" stroke-width="4.5" fill="#0A0A0C" />
    <circle cx="38" cy="53" r="2.5" fill="#FFFFFF" />

    <!-- Bottom Circuit Loop -->
    <path d="M 16 82 L 16 50" stroke="#FFFFFF" stroke-width="7.5" stroke-linecap="round" />
    <path d="M 16 68 L 64 68 C 76 68 80 61 80 54 C 80 47 76 47 64 47 L 38 47" stroke="#FFFFFF" stroke-width="7.5" stroke-linecap="round" stroke-linejoin="round" />
    <circle cx="16" cy="84" r="7.5" stroke="#FFFFFF" stroke-width="4.5" fill="#0A0A0C" />
    <circle cx="16" cy="84" r="2.5" fill="#FFFFFF" />
    <circle cx="38" cy="47" r="7.5" stroke="#FFFFFF" stroke-width="4.5" fill="#0A0A0C" />
    <circle cx="38" cy="47" r="2.5" fill="#FFFFFF" />
  </g>

  <!-- Wordmark: BACKTECH in Plus Jakarta Sans ExtraBold -->
  <text
    x="110"
    y="66"
    fill="#FFFFFF"
    font-family="'Plus Jakarta Sans', -apple-system, sans-serif"
    font-weight="800"
    font-size="44"
    letter-spacing="-0.02em"
  >
    BACKTECH
  </text>
</svg>
